<?xml version="1.0" encoding="utf-8"?>
<!-- Generator: Adobe Illustrator 25.2.0, SVG Export Plug-In . SVG Version: 6.00 Build 0)  -->
<svg version="1.1" id="Capa_1" xmlns="http://www.w3.org/2000/svg" xmlns:xlink="http://www.w3.org/1999/xlink" x="0px" y="0px"
	 viewBox="0 0 612 702.1" style="enable-background:new 0 0 612 702.1;" xml:space="preserve">
<style type="text/css">
	.st0{fill:#15284B;}
	.st1{fill:#EABE3F;}
</style>
<polygon class="st0" points="611.6,701.8 311.1,537.3 0.4,701.8 0.4,0.2 611.6,0.2 "/>
<g>
	<g>
		<rect x="230.8" y="344.8" class="st1" width="150.4" height="23.4"/>
	</g>
	<g>
		<path class="st1" d="M388.8,335.9H222.9l-62.3-145.4l87.2,44.7l50.5-109.4h15l50.5,109.4l87.2-44.7L388.8,335.9z M238,312.5h135.6
			l30.8-71.8L353.1,267l-47.2-102.2L258.6,267l-51.3-26.3L238,312.5z"/>
	</g>
	<g>
		<ellipse class="st1" cx="306.7" cy="91.5" rx="16.4" ry="16.7"/>
	</g>
	<g>
		<ellipse class="st1" cx="138.8" cy="163.9" rx="16.4" ry="16.7"/>
	</g>
	<g>
		<ellipse class="st1" cx="473.2" cy="163.9" rx="16.4" ry="16.7"/>
	</g>
</g>
<g>
	<path class="st1" d="M149.2,439.1c0,13.5-10.3,22-26.6,22h-8.4v14.3H94.5v-58.3h28.1C138.9,417.1,149.2,425.6,149.2,439.1z
		 M129.4,439.1c0-4.2-2.6-6.8-8-6.8h-7.2v13.7h7.2C126.8,445.9,129.4,443.3,129.4,439.1z"/>
	<path class="st1" d="M180.6,460.7h-5.3v14.7h-19.7v-58.3h28.1c16.2,0,26.6,8.5,26.6,22c0,8.4-4,14.7-11,18.3l12.2,18h-21
		L180.6,460.7z M182.4,432.3h-7.2v13.7h7.2c5.4,0,8-2.6,8-6.8C190.4,434.8,187.8,432.3,182.4,432.3z"/>
	<path class="st1" d="M266.1,460.6v14.8h-48.5v-58.3H265v14.8h-28.1v6.8h24.7v14.2h-24.7v7.7H266.1z"/>
	<path class="st1" d="M325.7,475.4l-0.2-26.6l-12.7,21.3h-8.7l-12.7-20.4v25.7h-17.9v-58.3h16.2l19,31.1l18.5-31.1h16.2l0.2,58.3
		H325.7z"/>
	<path class="st1" d="M353.1,417.1h19.7v58.3h-19.7V417.1z"/>
	<path class="st1" d="M381.7,449.2v-32.1h19.7v31.5c0,8.9,3.4,12.2,8.9,12.2s8.9-3.3,8.9-12.2v-31.5h19.3v32.1
		c0,17.5-10.5,27.6-28.4,27.6S381.7,466.6,381.7,449.2z"/>
	<path class="st1" d="M499.6,475.4l-0.2-26.6l-12.7,21.3h-8.7l-12.7-20.4v25.7h-17.9v-58.3h16.2l19,31.1l18.5-31.1h16.2l0.2,58.3
		H499.6z"/>
</g>
</svg>
